<?xml version="1.0" ?><svg enable-background="new -178.328 54.492 422.031 460.852" id="Layer_1" version="1.1" viewBox="-178.328 54.492 422.031 460.852" xml:space="preserve" xmlns="http://www.w3.org/2000/svg" xmlns:xlink="http://www.w3.org/1999/xlink"><g id="Layer_1_1_"/><g><path d="M243.225,271.988c-0.007-2.637,0.108-5.312,0.229-8.144c0.146-3.402,0.298-6.919,0.233-10.53   c-0.063-3.619-0.362-7.123-0.65-10.512c-0.241-2.832-0.469-5.506-0.557-8.135c-0.081-2.448-0.129-4.898-0.177-7.349   c-0.073-3.684-0.148-7.494-0.334-11.317c-0.187-3.815-0.481-7.625-0.766-11.31c-0.181-2.331-0.361-4.663-0.514-6.999l0.002-1.16   c0.017-6.056,0.037-13.592-2.315-20.65l-3.093-7.357l-3.06,0.209c-3.251-3.284-6.625-6.64-10.367-9.747   c-5.823-4.836-10.437-8.445-14.957-11.703c-3.265-2.352-6.599-4.401-9.824-6.382c-2.068-1.271-4.023-2.472-5.928-3.729   c-1.69-1.115-3.378-2.241-5.067-3.368c-3.349-2.233-6.81-4.542-10.32-6.79c-2.667-1.707-5.285-3.513-8.057-5.426   c-2.267-1.564-4.61-3.181-7.009-4.758l-0.814-0.535c-4.649-3.056-9.457-6.216-14.069-9.489l-0.627-0.445l-0.688-0.344   c-1.706-0.853-3.069-1.284-3.973-1.569c-0.321-0.102-0.52-0.165-0.678-0.223c-1.838-1.216-3.693-2.496-5.495-3.737   c-2.519-1.736-5.123-3.532-7.794-5.239c-2.91-1.861-5.819-3.443-8.633-4.974c-2.137-1.162-4.155-2.26-6.061-3.416   c-1.732-1.052-3.439-2.136-5.143-3.217c-3.002-1.905-6.105-3.876-9.375-5.7c-3.515-1.96-7.053-3.638-10.475-5.26   c-1.637-0.776-3.274-1.552-4.899-2.356c-1.742-0.862-3.493-1.82-5.346-2.835c-3.159-1.729-6.425-3.516-10.042-5.042   c-4.368-1.844-8.812-3.347-13.108-4.801c-1.074-0.363-2.15-0.728-3.315-1.127C42.124,53.844,34,53.816,26.009,56.439l-0.307,0.091   c-6.071,1.793-12.348,3.648-18.456,5.872c-4.49,1.636-8.739,3.53-12.848,5.362c-1.785,0.796-3.567,1.591-5.355,2.356   c-4.677,2.002-9.186,4.212-13.547,6.35c-1.406,0.689-2.813,1.379-4.224,2.061c-5.715,2.762-11.624,5.618-17.502,8.716   c-2.311,1.218-4.692,2.359-7.213,3.566c-3.326,1.593-6.765,3.241-10.185,5.147c-3.179,1.772-6.226,3.675-9.173,5.516   c-2.537,1.584-4.934,3.081-7.386,4.487c-2.613,1.498-5.235,2.936-8.01,4.459c-2.872,1.576-5.842,3.205-8.793,4.902l-0.314,0.189   c-1.783,1.114-3.679,2.168-5.687,3.285c-2.14,1.189-4.353,2.419-6.569,3.805c-2.424,1.515-4.516,3.133-6.538,4.698   c-1.708,1.322-3.322,2.571-4.897,3.556l-0.741,0.463l-0.649,0.584c-0.513,0.462-0.945,0.918-1.31,1.357   c-1.658,0.984-2.992,1.957-4.129,2.786c-1.262,0.919-2.259,1.646-3.514,2.273c-2.683,1.341-4.292,3.169-5.179,4.284   c-7.406,3.958-12.763,9.559-17.515,14.526c-1.123,1.173-2.244,2.347-3.391,3.493l-0.521,0.563   c-0.616,0.719-1.564,2.025-2.153,3.804c-0.775,1.258-1.307,2.694-1.539,4.253c-0.85,2.993-2.5,6.408-3.999,9.407l-1.056,2.146   l0,1.232l-0.988,0.988v4.023c-0.019,0.275-0.061,0.599-0.097,0.923c-0.021,0.191-0.043,0.389-0.065,0.59   c-0.299,0.768-0.504,1.413-0.664,1.914c-0.193,0.606-0.25,0.777-0.397,1.071l-0.599,1.197l-0.263,1.313   c-1.137,5.683-1.95,10.478-2.558,15.089c-0.431,3.272-0.712,6.528-0.984,9.677c-0.148,1.713-0.297,3.446-0.478,5.253   c-0.593,6.212-1.03,11.272-1.377,15.927c-0.134,1.792-0.277,3.581-0.421,5.371c-0.275,3.429-0.56,6.975-0.771,10.516   c-0.137,2.3-0.329,4.59-0.532,7.014c-0.239,2.862-0.487,5.821-0.639,8.819c-0.147,2.908-0.156,5.749-0.165,8.497   c-0.008,2.548-0.016,4.956-0.128,7.317l-0.011,0.476c0,3.109-0.117,6.234-0.242,9.543c-0.12,3.198-0.244,6.506-0.256,9.854   c-0.014,3.788,0.111,7.555,0.231,11.197c0.096,2.891,0.186,5.621,0.214,8.376c0.059,5.953,0.305,11.925,0.542,17.701l0.083,2.029   c0.092,2.265,0.128,4.528,0.167,6.925c0.067,4.206,0.136,8.555,0.532,12.99c0.66,7.401,1.715,14.562,2.56,19.973l0.34,2.174   l1.22,1.83c4.692,7.039,10.802,12.325,17.178,17.564c2.983,2.451,6.028,4.833,8.974,7.136c2.797,2.188,5.439,4.254,8.019,6.364   l0.519,0.397c1.678,1.198,3.301,2.385,4.897,3.552c5.273,3.854,10.253,7.493,16.032,10.796l0.497,0.283l0.525,0.226   c2.644,1.133,5.175,2.831,7.855,4.628c2.674,1.794,5.65,3.789,9.133,5.49c0.897,1.327,2.398,3.176,4.929,4.563   c2.628,1.598,5.192,3.28,7.902,5.06c2.405,1.578,4.892,3.21,7.424,4.775c2.824,1.747,5.677,3.434,8.435,5.064   c2.602,1.539,5.06,2.992,7.519,4.505c2.042,1.256,4.069,2.531,6.093,3.805c3.188,2.006,6.484,4.08,9.819,6.063   c5.862,3.485,11.204,6.568,16.328,9.425c4.985,2.779,10.801,5.995,16.73,8.99c3.878,1.957,7.792,3.569,11.577,5.128   c2.061,0.849,4.007,1.65,5.938,2.5c1.281,0.563,2.559,1.136,3.839,1.709c4.428,1.981,9.006,4.031,13.839,5.8l2.526,0.925   l2.649-0.468c7.426-1.311,13.075-2.686,18.322-4.459c4.281-1.448,8.377-3.164,12.339-4.824c1.445-0.605,2.89-1.211,4.336-1.8   c2.517-1.023,4.939-2.118,7.283-3.176c2.906-1.313,5.651-2.553,8.367-3.572l0.491-0.184l0.468-0.234   c1.438-0.719,2.764-1.553,3.934-2.289c0.774-0.487,1.574-0.99,2.135-1.281c2.538-1.187,5.05-2.42,7.48-3.613   c2.393-1.175,4.865-2.389,7.275-3.513c2.638-1.231,5.213-2.529,7.703-3.785c2.464-1.243,4.792-2.417,7.154-3.519   c2.482-1.159,4.964-2.299,7.445-3.439c2.516-1.156,5.032-2.313,7.55-3.487l0.688-0.321l0.631-0.421   c2.43-1.62,4.764-2.75,7.465-4.06c2.787-1.35,5.927-2.871,9.29-5.056c2.792-1.391,5.603-2.755,8.412-4.119   c3.057-1.484,6.113-2.968,9.147-4.485l0.702-0.351l0.639-0.456c3.326-2.377,6.347-4.345,9.544-6.429   c3.031-1.977,6.16-4.016,9.567-6.426c0.785-0.378,1.647-0.772,2.548-1.184c3.586-1.64,7.65-3.498,11.406-6.315   c3.417-2.563,6.984-4.865,10.434-7.093c2.214-1.429,4.503-2.907,6.742-4.445c7.629-5.242,13.105-10.346,17.757-16.547l0.794-1.059   l0.491-1.228c1.84-4.602,2.549-8.961,3.175-12.808c0.222-1.364,0.432-2.653,0.68-3.896l0.115-0.574l0.047-0.583   c0.288-3.57,0.422-7.104,0.551-10.52c0.106-2.816,0.207-5.477,0.388-8.127c0.255-3.762,0.411-7.521,0.563-11.158   c0.104-2.492,0.207-4.982,0.343-7.468c0.145-2.649,0.37-5.292,0.608-8.089c0.291-3.411,0.591-6.938,0.738-10.521   c0.069-1.717,0.144-3.433,0.218-5.148c0.191-4.411,0.389-8.972,0.51-13.497l0.049-1.802c0.148-5.515,0.302-11.217,0.371-16.86   c0.044-3.611-0.083-7.161-0.206-10.594C243.326,277.265,243.231,274.624,243.225,271.988z M223.439,280.778   c0.12,3.345,0.233,6.503,0.195,9.633c-0.068,5.497-0.22,11.125-0.366,16.567l-0.048,1.805c-0.117,4.36-0.311,8.837-0.498,13.167   c-0.075,1.732-0.15,3.465-0.221,5.197c-0.129,3.142-0.398,6.298-0.683,9.639c-0.241,2.823-0.49,5.743-0.651,8.699   c-0.14,2.571-0.247,5.146-0.355,7.723c-0.146,3.509-0.298,7.137-0.535,10.64c-0.199,2.948-0.311,5.884-0.418,8.723   c-0.12,3.159-0.233,6.153-0.458,9.119c-0.264,1.38-0.48,2.709-0.69,4.001c-0.446,2.746-0.841,5.175-1.575,7.409   c-3.132,3.915-6.958,7.337-12.227,10.957c-2.003,1.376-4.072,2.713-6.264,4.127c-3.74,2.415-7.607,4.911-11.586,7.896   c-2.032,1.524-4.925,2.847-7.723,4.126c-1.266,0.579-2.574,1.177-3.835,1.808l-0.702,0.351l-0.639,0.456   c-3.326,2.377-6.347,4.345-9.544,6.429c-3.04,1.981-6.178,4.026-9.596,6.446c-2.739,1.363-5.494,2.7-8.25,4.038   c-3.057,1.484-6.113,2.968-9.147,4.485l-0.558,0.278l-0.518,0.346c-2.43,1.62-4.764,2.75-7.465,4.06   c-2.755,1.334-5.854,2.835-9.171,4.979c-2.266,1.055-4.53,2.095-6.795,3.136c-2.516,1.156-5.032,2.313-7.55,3.487   c-2.638,1.231-5.213,2.529-7.703,3.785c-2.464,1.243-4.792,2.417-7.154,3.519c-2.59,1.209-5.153,2.468-7.633,3.685   c-2.392,1.175-4.864,2.389-7.274,3.513l-0.244,0.118c-1.438,0.719-2.763,1.553-3.933,2.289c-0.66,0.415-1.339,0.842-1.871,1.139   c-3.108,1.193-6.086,2.538-8.971,3.841c-2.273,1.027-4.421,1.997-6.588,2.878c-1.511,0.615-3.02,1.247-4.528,1.879   c-3.809,1.596-7.405,3.104-11.016,4.324c-3.635,1.229-7.632,2.243-12.711,3.217c-3.315-1.31-6.605-2.782-10.047-4.323   c-1.319-0.59-2.636-1.18-3.955-1.761c-2.149-0.945-4.298-1.831-6.377-2.687c-3.594-1.48-6.989-2.879-10.18-4.488   c-5.589-2.823-11.192-5.922-16.006-8.605c-4.961-2.766-10.144-5.758-15.845-9.147c-3.119-1.854-6.164-3.771-9.389-5.8   c-2.082-1.31-4.167-2.621-6.268-3.913c-2.605-1.603-5.254-3.169-7.815-4.684c-2.674-1.582-5.44-3.217-8.099-4.861   c-2.304-1.424-4.568-2.91-6.967-4.484c-2.523-1.655-5.123-3.362-7.81-5.015c-0.917-1.41-2.574-3.6-5.601-5.113l-0.533-0.247   c-2.643-1.133-5.175-2.831-7.855-4.628c-3.028-2.031-6.442-4.32-10.542-6.149c-4.641-2.694-9.048-5.916-13.706-9.32   c-1.569-1.146-3.165-2.313-4.809-3.489c-2.671-2.18-5.434-4.34-8.107-6.431c-2.852-2.23-5.801-4.537-8.597-6.834   c-4.722-3.881-8.927-7.473-12.033-11.528c-0.979-6.463-1.617-11.574-2.042-16.337c-0.331-3.708-0.391-7.509-0.455-11.533   c-0.039-2.412-0.078-4.907-0.181-7.42l-0.083-2.037c-0.231-5.622-0.471-11.436-0.526-17.078c-0.03-2.987-0.128-5.961-0.224-8.838   c-0.12-3.621-0.233-7.042-0.22-10.462c0.011-3.011,0.124-6.006,0.243-9.178c0.123-3.271,0.25-6.651,0.255-10.057   c0.123-2.722,0.131-5.386,0.14-7.964c0.008-2.631,0.016-5.116,0.14-7.55c0.135-2.668,0.358-5.337,0.595-8.162   c0.204-2.436,0.415-4.954,0.566-7.495c0.198-3.335,0.475-6.776,0.742-10.104c0.146-1.828,0.293-3.655,0.429-5.483   c0.337-4.513,0.763-9.443,1.338-15.47c0.186-1.853,0.343-3.675,0.499-5.476c0.265-3.064,0.515-5.958,0.887-8.785   c0.509-3.86,1.186-7.906,2.117-12.651c0.447-1.056,0.723-1.921,0.925-2.557c0.193-0.606,0.25-0.777,0.397-1.071l1.056-2.111v-2.242   c0.019-0.275,0.061-0.599,0.097-0.923c0.001-0.01,0.002-0.021,0.003-0.031c0.668-1.599,0.966-3.173,1.1-4.489   c0.916-1.88,1.842-3.879,2.673-5.958h3.845v-8.03c0.233-0.243,0.466-0.487,0.7-0.731c4.222-4.413,8.209-8.581,13.058-11.005   c2.689-1.345,4.299-3.178,5.186-4.292c2.212-1.203,3.9-2.433,5.292-3.447c1.262-0.919,2.259-1.646,3.514-2.273l0.947-0.474   l0.827-0.661c0.905-0.724,1.589-1.453,2.116-2.134c1.708-1.169,3.266-2.375,4.785-3.55c1.708-1.322,3.322-2.571,4.897-3.556   c1.783-1.114,3.679-2.168,5.687-3.285c2.087-1.16,4.243-2.359,6.406-3.703c2.73-1.567,5.557-3.118,8.292-4.619   c2.734-1.5,5.561-3.051,8.336-4.642c2.78-1.594,5.451-3.262,8.034-4.875c2.866-1.79,5.573-3.48,8.317-5.011   c2.88-1.605,5.895-3.049,9.086-4.578c2.581-1.236,5.249-2.514,7.9-3.912c5.569-2.936,11.318-5.714,16.878-8.401   c1.444-0.698,2.885-1.404,4.325-2.11c4.324-2.12,8.408-4.122,12.615-5.922c1.88-0.805,3.752-1.639,5.627-2.476   c3.97-1.769,7.719-3.441,11.549-4.836c5.524-2.011,11.233-3.698,17.278-5.484l0.789-0.239c3.904-1.302,7.723-1.293,11.59-0.005   c1.106,0.38,2.214,0.755,3.318,1.129c4.138,1.4,8.047,2.722,11.742,4.282c2.682,1.131,5.369,2.603,8.215,4.16   c1.949,1.067,3.965,2.17,6.075,3.214c1.726,0.854,3.465,1.68,5.205,2.504c3.271,1.551,6.362,3.017,9.3,4.655   c2.772,1.546,5.505,3.281,8.397,5.118c1.816,1.153,3.638,2.308,5.486,3.431c2.311,1.402,4.634,2.666,6.881,3.887   c2.623,1.427,5.101,2.774,7.415,4.254c2.379,1.521,4.729,3.141,7.217,4.856c2.104,1.449,4.277,2.948,6.517,4.415l0.486,0.319   l0.521,0.26c1.706,0.853,3.069,1.284,3.973,1.569c0.252,0.08,0.429,0.136,0.569,0.185c4.633,3.261,9.304,6.331,13.83,9.306   l0.813,0.535c2.211,1.453,4.46,3.005,6.635,4.506c2.79,1.925,5.675,3.917,8.633,5.81c3.352,2.146,6.734,4.402,10.006,6.584   c1.717,1.145,3.431,2.288,5.149,3.422c2.177,1.436,4.361,2.778,6.475,4.077c3.052,1.874,5.933,3.644,8.601,5.566   c4.136,2.98,8.414,6.331,13.872,10.863c3.348,2.779,6.511,5.981,9.859,9.37c0.378,0.383,0.757,0.767,1.137,1.15   c0.638,3.492,0.627,7.591,0.616,11.583l-0.003,1.531l0.021,0.643c0.163,2.53,0.358,5.057,0.554,7.582   c0.286,3.709,0.557,7.212,0.729,10.743c0.172,3.533,0.241,7.032,0.314,10.737c0.05,2.541,0.101,5.08,0.185,7.618   c0.104,3.146,0.365,6.208,0.617,9.168c0.272,3.201,0.529,6.224,0.582,9.17c0.053,3.003-0.079,6.07-0.219,9.317   c-0.126,2.932-0.257,5.963-0.248,9.057C223.232,275.009,223.338,277.942,223.439,280.778z"/><path d="M106.604,380.227c-0.382-0.014-0.759-0.027-1.127-0.044c-0.095-4.21,0.021-8.232,0.164-11.806   c0.135-3.373,0.506-6.828,0.898-10.486c0.279-2.61,0.569-5.311,0.779-8.037c0.178-2.138,0.337-4.277,0.496-6.418   c0.292-3.933,0.567-7.647,0.961-11.39c0.302-2.869,0.516-5.722,0.724-8.48c0.245-3.271,0.478-6.358,0.84-9.416   c0.35-2.951,0.792-5.884,1.26-8.99c0.435-2.887,0.884-5.872,1.255-8.882c0.408-3.307,0.779-6.618,1.151-9.929   c0.302-2.693,0.604-5.387,0.927-8.078c0.652-5.444,1.405-11.781,2.086-18.09c0.199-1.849,0.408-3.697,0.617-5.543   c0.467-4.123,0.949-8.386,1.321-12.645c0.345-3.936,0.497-7.824,0.645-11.583c0.089-2.26,0.177-4.519,0.308-6.771l0.177-2.956   c0.304-5.039,0.617-10.25,0.727-15.48l0.002-0.209c0-5.667-4.053-11.761-10.68-12.361c-5.352-0.818-12.311-1.788-19.446-2.218   c-7.054-0.427-14.021-0.024-20.498,0.474l-1.226,0.094l-1.166,0.388c-1.491,0.497-8.867,3.459-7.712,13.094v0.002   c0.088,2.219,0.148,4.448,0.209,6.686c0.11,4.083,0.224,8.304,0.508,12.569c0.174,2.622,0.417,5.221,0.652,7.734   c0.355,3.794,0.69,7.379,0.794,10.916l0.037,1.251c0.173,5.875,0.337,11.424-0.053,16.837c-0.204,2.838-0.592,5.804-1.203,9.144   c-1.568-0.14-3.162-0.303-4.788-0.469c-1.095-0.112-2.188-0.224-3.281-0.329c-2.578-0.249-5.125-0.414-7.588-0.573   c-3.2-0.207-6.225-0.403-9.172-0.763l-2.057-0.253c-4.986-0.615-10.142-1.25-15.369-1.639c-3.25-0.241-6.244-0.399-9.068-0.475   c0.026-0.921,0.073-1.881,0.121-2.875c0.074-1.545,0.151-3.139,0.163-4.798c0.111-1.346,0.217-2.69,0.322-4.033   c0.363-4.615,0.707-8.975,1.248-13.313c0.441-3.538,1.065-7.078,1.727-10.827c0.4-2.269,0.801-4.542,1.164-6.827   c0.658-4.142,1.433-8.256,2.254-12.611c0.317-1.683,0.635-3.372,0.948-5.071c0.856-4.652,1.773-9.304,2.739-14.144   c2.685-0.663,5.452-1.982,7.956-4.485l4.16-4.161l-1.616-5.657c-2.703-9.461-8.752-16.396-14.312-21.932   c-2.711-2.7-5.557-5.167-8.31-7.552c-2.646-2.293-5.145-4.459-7.388-6.703c-2.244-2.243-7.687-5.351-12.07-5.351h-4.142   l-2.929,2.929c-2.039,2.04-3.8,3.855-5.561,5.67c-1.438,1.483-2.875,2.965-4.477,4.58c-1.35,0.888-2.441,1.856-3.305,2.623   c-0.309,0.274-0.716,0.635-0.944,0.814l-1.214,0.606l-1.147,1.148c-0.737,0.737-2.065,1.589-3.471,2.491   c-2.133,1.369-4.551,2.92-6.814,5.183c-0.627,0.627-1.44,1.302-2.301,2.016c-2.494,2.07-5.91,4.905-8.213,9.512l-6.055,12.11   l13.355,2.226c1.901,0.317,3.724,0.553,5.488,0.778c0.046,3.935,0.055,7.528,0.029,10.994c-0.026,3.436-0.194,6.877-0.373,10.52   c-0.124,2.528-0.252,5.143-0.329,7.767c-0.201,6.871-0.419,12.871-0.667,18.344c-0.089,1.968-0.172,3.938-0.256,5.907   c-0.174,4.104-0.354,8.348-0.583,12.487c-0.181,3.252-0.205,6.446-0.227,9.534c-0.023,3.116-0.044,6.059-0.219,8.946   c-0.196,3.25-0.375,6.499-0.554,9.747c-0.161,2.918-0.321,5.836-0.495,8.75c-0.166,2.782-0.431,5.563-0.713,8.507   c-0.311,3.248-0.632,6.606-0.813,10.018c-0.139,2.608-0.332,5.302-0.518,7.907c-0.249,3.486-0.507,7.091-0.655,10.708l-0.008,0.407   c0,2.581,0.014,5.097,0.028,7.581c0.013,2.341,0.026,4.653,0.027,6.968c0,0.684-0.004,1.369-0.008,2.056   c-0.025,4.051-0.053,8.61,0.823,13.514c0.069,1.573,0.276,3.063,0.463,4.405c0.155,1.116,0.384,2.761,0.331,3.484l-0.911,1.821   v2.146l-0.01,0.121c-0.142,1.615-0.518,5.906,2.766,9.49c1.662,1.814,3.919,2.981,6.348,3.314   c6.855,1.234,12.477,1.865,17.666,1.984c4.821,0.116,9.393-0.361,13.814-0.819c1.233-0.128,2.466-0.256,3.701-0.369   c4.183-0.304,8.707-3.052,10.997-6.757c1.686-2.728,2.196-5.907,1.499-8.897c-0.242-3.161-0.271-6.288-0.302-9.581   c-0.015-1.578-0.03-3.153-0.067-4.734c-0.133-5.595-0.674-11.056-1.651-16.662c-0.01-0.741-0.029-1.482-0.05-2.224   c-0.069-2.541-0.129-4.736,0.299-6.451l0.125-0.501l0.073-0.511c0.562-3.933,0.687-7.909,0.37-11.987   c1.971,0.12,4.031,0.27,6.206,0.448c1.847,0.151,3.697,0.291,5.548,0.43c4.541,0.342,8.83,0.665,13.128,1.168   c2.73,0.319,5.508,0.81,8.45,1.328c3.397,0.6,6.911,1.221,10.56,1.604l0.522,0.055h0.524c0.283,0,0.567,0.004,0.851,0.009   c-0.074,1.171-0.156,2.356-0.24,3.557c-0.078,1.122-0.156,2.243-0.229,3.364c-0.216,3.354-0.303,6.676-0.387,9.89   c-0.084,3.165-0.162,6.155-0.354,9.128l-0.151,2.291c-0.384,5.757-0.78,11.71-0.456,17.872l0.087,0.888   c0.303,2.122,0.517,4.435,0.742,6.884c0.045,0.494,0.092,0.995,0.139,1.501c-2.95,0.099-6.121,0.741-9.378,2.37L4.708,397.113   h34.946c1.664,3.963,4.134,7.593,7.384,10.843l0.428,0.403c2.207,1.962,4.293,4.308,6.501,6.791   c1.644,1.849,3.344,3.761,5.185,5.612c1.493,1.502,3.086,3.053,4.824,4.541c0.758,2.773,2.686,5.178,5.574,6.619l2.107,1.052h2.356   c1.042,0,2.219-0.042,3.385-0.09c0.349,0.101,0.702,0.196,1.061,0.285l6.978,1.744l3.873-6.06c0.507-0.793,0.887-1.569,1.166-2.319   c1.172-0.751,2.357-1.577,3.568-2.485l0.14-0.106c2.519-1.959,4.988-3.733,7.376-5.448c1.746-1.255,3.452-2.48,5.136-3.743   c2.367-1.775,4.532-3.671,6.627-5.503c1.619-1.417,3.289-2.878,5.036-4.266c3.026-1.847,4.567-4.261,5.359-5.522l7.444-7.444   l-8.725-6.979C116.883,380.595,110.941,380.382,106.604,380.227z M7.942,190.855c-1.543,0.185-3.146-0.21-4.399-1.113   c-1.848-1.332-2.236-3.291-2.236-4.7H6.4L7.942,190.855z M100.121,219.481l-0.179,2.989c-0.141,2.414-0.234,4.824-0.326,7.155   c-0.145,3.685-0.281,7.165-0.584,10.623c-0.351,4.008-0.818,8.142-1.271,12.14c-0.213,1.881-0.426,3.763-0.629,5.646   c-0.669,6.201-1.413,12.469-2.059,17.855c-0.329,2.74-0.637,5.483-0.944,8.227c-0.363,3.239-0.727,6.478-1.126,9.713   c-0.338,2.745-0.748,5.468-1.183,8.351c-0.47,3.122-0.956,6.35-1.344,9.614c-0.413,3.484-0.672,6.935-0.923,10.271   c-0.205,2.733-0.399,5.315-0.67,7.889c-0.425,4.047-0.726,8.09-1.016,11.999c-0.154,2.081-0.309,4.161-0.487,6.302   c-0.191,2.49-0.465,5.037-0.729,7.501c-0.41,3.824-0.834,7.779-0.996,11.818c-0.232,5.792-0.395,12.693,0.159,20.026   c0.144,2.631,1.325,6.824,6.85,9.538l0.834,0.833l1.544,0.515c-0.116,0.09-0.232,0.178-0.349,0.265   c-1.572,1.18-3.17,2.326-4.804,3.499c-2.519,1.81-5.122,3.68-7.916,5.85c-1.501,1.122-2.867,2.006-4.18,2.692   c-1.36-1.094-2.807-2.467-4.461-4.132c-1.449-1.457-2.893-3.081-4.421-4.8c-0.957-1.076-1.927-2.166-2.933-3.257l12.18,2.437   l-4.506-15.77c-1.066-3.732-1.473-8.142-1.903-12.81c-0.224-2.43-0.455-4.938-0.792-7.402c-0.223-4.84,0.109-9.815,0.46-15.074   l0.154-2.337c0.216-3.353,0.303-6.676,0.388-9.889c0.083-3.166,0.161-6.156,0.353-9.13c0.069-1.086,0.146-2.172,0.221-3.257   c0.38-5.439,0.771-11.064,0.464-16.909l-0.924-17.533l-14.243,9.495c-0.728,0.104-2.311,0.061-3.394,0.032   c-0.629-0.017-1.261-0.032-1.894-0.039c-2.803-0.316-5.673-0.822-8.702-1.357c-3.094-0.546-6.293-1.11-9.602-1.498   c-4.708-0.551-9.407-0.904-13.951-1.246c-1.806-0.136-3.61-0.271-5.413-0.42c-7.439-0.61-13.946-0.907-19.891-0.907h-13.257   l3.642,12.747c1.7,5.951,2.209,11.315,1.553,16.382c-0.943,4.142-0.84,7.914-0.749,11.26c0.024,0.866,0.049,1.732,0.049,2.597   v0.901l0.161,0.888c0.887,4.878,1.375,9.599,1.49,14.43c0.035,1.484,0.049,2.963,0.063,4.446c0.018,1.87,0.035,3.771,0.093,5.724   c-3.261,0.326-6.37,0.58-9.343,0.519c-2.005-0.046-4.084-0.188-6.353-0.441c-0.079-1.744-0.3-3.338-0.488-4.683   c-0.146-1.048-0.296-2.131-0.296-2.711v-0.991l-0.194-0.971c-0.649-3.243-0.627-6.704-0.605-10.368   c0.004-0.73,0.009-1.46,0.008-2.185c0-2.348-0.014-4.695-0.027-7.073c-0.014-2.382-0.027-4.793-0.028-7.263   c0.136-3.243,0.368-6.476,0.612-9.894c0.193-2.695,0.392-5.482,0.541-8.275c0.159-2.989,0.446-5.993,0.75-9.173   c0.286-2.991,0.582-6.083,0.769-9.225c0.175-2.943,0.337-5.89,0.5-8.838c0.177-3.212,0.354-6.427,0.548-9.641   c0.206-3.416,0.23-6.766,0.254-10.005c0.021-2.981,0.042-5.798,0.197-8.57c0.236-4.271,0.419-8.582,0.596-12.75   c0.083-1.951,0.165-3.901,0.253-5.851c0.252-5.58,0.474-11.685,0.678-18.663c0.071-2.427,0.189-4.829,0.313-7.373   c0.181-3.687,0.368-7.499,0.396-11.349c0.021-2.858,0.02-5.793-0.005-8.918c1.728-0.96,3.72-2.662,4.866-5.636l0.878-1.759v-2.357   c0-2.996-1.141-5.76-3.212-7.784c-1.115-1.089-2.304-1.793-3.437-2.247c0.666-0.5,1.334-1.041,1.996-1.633   c1.43-0.918,2.577-1.936,3.476-2.734c0.309-0.273,0.716-0.635,0.944-0.814l1.213-0.607l1.148-1.147   c1.926-1.926,3.604-3.653,5.268-5.369c1.643,1.497,3.301,2.933,4.926,4.342c2.61,2.262,5.075,4.398,7.297,6.611   c0.833,0.829,1.662,1.677,2.464,2.546c-0.702,0.119-1.403,0.293-2.095,0.524l3.287,12.396l-4.625-0.925l-0.117,0.585   c-1.203,6.016-2.339,11.699-3.399,17.459c-0.308,1.67-0.621,3.333-0.933,4.988c-0.811,4.303-1.649,8.752-2.353,13.179   c-0.345,2.171-0.726,4.331-1.106,6.487c-0.676,3.829-1.375,7.789-1.878,11.829c-0.597,4.789-0.974,9.582-1.339,14.217   c-0.114,1.444-0.228,2.891-0.348,4.339l-0.035,0.83c0,1.333-0.069,2.758-0.142,4.267c-0.246,5.087-0.523,10.853,1.543,17.054   l2.386,7.157l7.537-0.328c4.685-0.206,9.762-0.085,15.977,0.377c4.743,0.353,9.436,0.931,14.403,1.543l2.078,0.256   c3.514,0.43,6.968,0.653,10.308,0.869c2.414,0.156,4.694,0.304,6.958,0.522c1.055,0.102,2.11,0.209,3.167,0.317   c4.752,0.486,9.666,0.989,14.814,0.989h7.885l1.84-7.668c1.939-8.088,2.999-14.396,3.437-20.456   c0.461-6.426,0.275-12.748,0.095-18.862l-0.036-1.244c-0.123-4.181-0.504-8.256-0.873-12.197c-0.233-2.492-0.453-4.845-0.61-7.198   c-0.257-3.871-0.365-7.893-0.471-11.781c-0.003-0.099-0.005-0.198-0.008-0.297c3.085-0.112,6.183-0.12,9.204,0.063   c3.356,0.203,6.924,0.552,11.09,1.094C100.445,214.095,100.286,216.747,100.121,219.481z"/></g></svg>